# Blender 4.0.0
# www.blender.org
mtllib barrier.mtl
o Concrete
v -0.617677 0.000772 -0.286845
v -7.480887 0.000772 -0.286845
v -8.130171 3.151179 -0.111188
v -8.110051 3.156128 -0.120725
v -8.082854 3.164826 -0.124184
v -8.084952 3.209173 -0.120723
v -8.087356 3.241587 -0.111186
v -8.089421 3.253347 -0.098139
v -8.114511 3.232027 -0.098137
v -8.131695 3.195781 -0.098137
v -8.137801 3.151312 -0.098139
v -7.452347 3.543055 -0.121787
v -7.439796 3.574807 -0.112012
v -7.440356 3.597481 -0.097879
v -7.467402 3.595497 -0.097726
v -7.494355 3.589559 -0.097580
v -7.520999 3.579730 -0.097441
v -7.517668 3.557657 -0.111769
v -7.500041 3.532552 -0.121705
v -7.473868 3.512358 -0.124184
v -8.137801 0.000772 -0.260976
v -8.081666 0.000772 -0.286845
v -8.109733 0.000772 -0.283379
v -8.130280 0.000772 -0.273910
v -8.131517 0.273924 -0.272554
v -8.110465 0.258150 -0.281638
v -8.080787 0.259572 -0.286845
v -8.080432 0.303110 -0.285655
v -8.080135 0.345305 -0.282123
v -8.079906 0.384687 -0.276382
v -8.109922 0.376061 -0.271887
v -8.131283 0.345573 -0.266678
v -8.137801 0.302188 -0.262275
v -0.056260 0.000772 -0.286845
v -0.000126 0.000772 -0.260976
v -0.007647 0.000772 -0.273910
v -0.028193 0.000772 -0.283379
v -0.058123 0.345160 -0.282127
v -0.058123 0.302612 -0.285655
v -0.058021 0.258533 -0.286845
v -0.027949 0.257339 -0.281647
v -0.006579 0.273492 -0.272566
v -0.000126 0.302188 -0.262275
v -0.006642 0.345573 -0.266678
v -0.028003 0.376061 -0.271887
v -0.058021 0.384687 -0.276382
v -0.027877 3.156141 -0.120725
v -0.007757 3.151192 -0.111188
v -0.000126 3.151312 -0.098139
v -0.006272 3.195802 -0.098072
v -0.023578 3.232097 -0.098009
v -0.048836 3.253494 -0.097961
v -0.050814 3.241714 -0.111094
v -0.053097 3.209247 -0.120696
v -0.055071 3.164826 -0.124184
v -8.130162 0.955542 -0.124092
v -8.109293 0.972217 -0.131702
v -8.080787 0.978321 -0.134487
v -8.080490 1.017362 -0.128829
v -8.080194 1.059616 -0.125357
v -8.079906 1.103596 -0.124184
v -8.108853 1.103536 -0.120884
v -8.130043 1.103465 -0.111869
v -0.058041 1.059507 -0.125374
v -0.058041 1.016959 -0.128903
v -0.058021 0.977442 -0.134646
v -0.029074 0.971338 -0.131861
v -0.007883 0.954662 -0.124251
v -0.007883 1.103465 -0.111869
v -0.029074 1.103536 -0.120884
v -0.058021 1.103596 -0.124184
v -7.480887 0.260611 -0.286845
v -7.480887 0.303360 -0.285691
v -7.480887 0.344614 -0.282269
v -7.480887 0.382928 -0.276700
v -0.598845 3.532659 -0.121793
v -0.581457 3.557880 -0.112017
v -0.578218 3.580020 -0.097879
v -0.604600 3.589699 -0.097732
v -0.631563 3.595529 -0.097586
v -0.658885 3.597481 -0.097441
v -0.659344 3.574832 -0.111764
v -0.646546 3.543089 -0.121700
v -0.624697 3.512358 -0.124184
v -0.617677 0.260611 -0.286845
v -0.617677 0.303360 -0.285691
v -0.617677 0.344614 -0.282269
v -0.617677 0.382928 -0.276700
v -0.617677 0.979200 -0.134328
v -0.617677 1.017516 -0.128759
v -0.617677 1.058769 -0.125338
v -0.617677 1.101518 -0.124184
v -7.480887 0.979200 -0.134328
v -7.480887 1.017516 -0.128759
v -7.480887 1.058769 -0.125338
v -7.480887 1.101518 -0.124184
v -8.137801 1.103402 -0.099554
v -8.137801 1.043600 -0.101190
v -8.137801 0.986053 -0.105957
v -8.137801 0.932763 -0.113696
v -0.000126 0.931883 -0.113855
v -0.000126 0.985650 -0.106030
v -0.000126 1.043492 -0.101207
v -0.000126 1.103402 -0.099554
v -8.127082 3.190101 -0.109403
v -8.107791 3.195241 -0.118766
v -8.109779 3.226549 -0.109412
v -7.477438 3.552209 -0.120201
v -7.464365 3.578121 -0.110155
v -7.494174 3.571599 -0.110043
v -8.127678 0.314197 -0.273984
v -8.106386 0.297856 -0.281761
v -8.106260 0.343410 -0.277947
v -0.031874 0.343285 -0.277952
v -0.031919 0.297418 -0.281765
v -0.010384 0.313953 -0.273992
v -0.030202 3.195290 -0.118744
v -0.010881 3.190134 -0.109365
v -0.028282 3.226625 -0.109338
v -8.130113 1.001957 -0.117390
v -8.109137 1.013383 -0.125762
v -8.108990 1.057632 -0.122117
v -8.130072 1.051803 -0.113271
v -0.029091 1.057525 -0.122135
v -0.029091 1.012983 -0.125836
v -0.007896 1.001558 -0.117464
v -0.007896 1.051697 -0.113289
v -0.621491 3.552289 -0.120202
v -0.604832 3.571741 -0.110113
v -0.634678 3.578162 -0.110025
v -8.109652 3.050581 -0.120778
v -8.130128 3.050581 -0.111415
v -8.137801 3.050581 -0.098611
v -0.000126 3.050581 -0.098611
v -0.007799 3.050581 -0.111415
v -0.028276 3.050581 -0.120778
v -0.056055 3.050581 -0.124184
v -0.622995 3.050581 -0.124184
v -7.475569 3.050581 -0.124184
v -8.081871 3.050581 -0.124184
v -2.019089 0.000772 -0.286845
v -2.019089 0.260611 -0.286845
v -2.019089 0.303360 -0.285691
v -2.019089 0.344614 -0.282269
v -2.019089 0.382928 -0.276700
v -2.019089 3.050581 -0.124184
v -2.019091 3.512358 -0.124184
v -2.019091 3.543082 -0.121717
v -2.019091 3.574827 -0.111814
v -2.019091 3.597481 -0.097529
v -3.385768 0.000772 -0.286845
v -3.385768 0.260611 -0.286845
v -3.385768 0.303360 -0.285691
v -3.385768 0.344614 -0.282269
v -3.385768 0.382928 -0.276700
v -3.385768 3.050581 -0.124184
v -3.385768 3.512358 -0.124184
v -3.385768 3.543076 -0.121735
v -3.385768 3.574822 -0.111863
v -3.385768 3.597481 -0.097616
v -4.752447 0.000772 -0.286845
v -4.752447 0.260611 -0.286845
v -4.752447 0.303360 -0.285691
v -4.752447 0.344614 -0.282269
v -4.752447 0.382928 -0.276700
v -4.752447 3.050581 -0.124184
v -4.752446 3.512358 -0.124184
v -4.752446 3.543069 -0.121752
v -4.752446 3.574817 -0.111913
v -4.752446 3.597481 -0.097704
v -6.119126 0.000772 -0.286845
v -6.119126 0.260611 -0.286845
v -6.119126 0.303360 -0.285691
v -6.119126 0.344614 -0.282269
v -6.119126 0.382928 -0.276700
v -6.119126 3.050581 -0.124184
v -6.119124 3.512358 -0.124184
v -6.119124 3.543062 -0.121770
v -6.119124 3.574812 -0.111962
v -6.119124 3.597481 -0.097791
v -0.617677 0.000772 0.286845
v -7.480887 0.000772 0.286845
v -8.130171 3.151179 0.111187
v -8.110051 3.156128 0.120725
v -8.082854 3.164826 0.124184
v -8.084952 3.209173 0.120723
v -8.087356 3.241587 0.111186
v -8.089421 3.253347 0.098138
v -8.114511 3.232027 0.098137
v -8.131695 3.195781 0.098137
v -8.137801 3.151312 0.098138
v -7.452347 3.543055 0.121787
v -7.439796 3.574807 0.112011
v -7.440356 3.597481 0.097878
v -7.467402 3.595497 0.097726
v -7.494355 3.589559 0.097580
v -7.520999 3.579730 0.097441
v -7.517668 3.557657 0.111768
v -7.500041 3.532552 0.121705
v -7.473868 3.512358 0.124184
v -8.137801 0.000772 0.260976
v -8.081666 0.000772 0.286845
v -8.109733 0.000772 0.283379
v -8.130280 0.000772 0.273910
v -8.131517 0.273924 0.272554
v -8.110465 0.258150 0.281638
v -8.080787 0.259572 0.286844
v -8.080432 0.303110 0.285655
v -8.080135 0.345305 0.282123
v -8.079906 0.384687 0.276382
v -8.109922 0.376061 0.271887
v -8.131283 0.345573 0.266678
v -8.137801 0.302188 0.262275
v -0.056260 0.000772 0.286845
v -0.000126 0.000772 0.260976
v -0.007647 0.000772 0.273910
v -0.028193 0.000772 0.283379
v -0.058123 0.345160 0.282127
v -0.058123 0.302613 0.285655
v -0.058021 0.258533 0.286844
v -0.027949 0.257339 0.281647
v -0.006579 0.273492 0.272566
v -0.000126 0.302188 0.262275
v -0.006642 0.345573 0.266678
v -0.028003 0.376061 0.271887
v -0.058021 0.384687 0.276382
v -0.027877 3.156141 0.120725
v -0.007757 3.151192 0.111188
v -0.000126 3.151312 0.098138
v -0.006272 3.195802 0.098072
v -0.023578 3.232097 0.098009
v -0.048836 3.253494 0.097961
v -0.050814 3.241714 0.111094
v -0.053097 3.209247 0.120696
v -0.055071 3.164826 0.124184
v -8.130162 0.955542 0.124092
v -8.109293 0.972217 0.131702
v -8.080787 0.978321 0.134487
v -8.080490 1.017362 0.128828
v -8.080194 1.059616 0.125356
v -8.079906 1.103596 0.124184
v -8.108853 1.103536 0.120884
v -8.130043 1.103465 0.111869
v -0.058041 1.059507 0.125374
v -0.058041 1.016959 0.128903
v -0.058021 0.977442 0.134646
v -0.029074 0.971338 0.131861
v -0.007883 0.954662 0.124251
v -0.007883 1.103465 0.111869
v -0.029074 1.103536 0.120884
v -0.058021 1.103596 0.124184
v -7.480887 0.260611 0.286844
v -7.480887 0.303360 0.285691
v -7.480887 0.344614 0.282269
v -7.480887 0.382928 0.276700
v -0.598845 3.532659 0.121792
v -0.581457 3.557880 0.112016
v -0.578218 3.580020 0.097878
v -0.604600 3.589699 0.097732
v -0.631563 3.595529 0.097586
v -0.658885 3.597481 0.097441
v -0.659344 3.574832 0.111764
v -0.646546 3.543089 0.121699
v -0.624697 3.512358 0.124184
v -0.617677 0.260611 0.286844
v -0.617677 0.303360 0.285691
v -0.617677 0.344614 0.282269
v -0.617677 0.382928 0.276700
v -0.617677 0.979200 0.134328
v -0.617677 1.017516 0.128759
v -0.617677 1.058769 0.125338
v -0.617677 1.101518 0.124184
v -7.480887 0.979200 0.134328
v -7.480887 1.017516 0.128759
v -7.480887 1.058769 0.125338
v -7.480887 1.101518 0.124184
v -8.137801 1.103402 0.099554
v -8.137801 1.043600 0.101190
v -8.137801 0.986053 0.105956
v -8.137801 0.932763 0.113696
v -0.000126 0.931883 0.113855
v -0.000126 0.985650 0.106030
v -0.000126 1.043492 0.101207
v -0.000126 1.103402 0.099554
v -8.127082 3.190101 0.109403
v -8.107791 3.195241 0.118765
v -8.109779 3.226549 0.109412
v -7.477438 3.552209 0.120200
v -7.464365 3.578121 0.110155
v -7.494174 3.571599 0.110043
v -8.127678 0.314197 0.273984
v -8.106386 0.297856 0.281761
v -8.106260 0.343410 0.277947
v -0.031874 0.343285 0.277952
v -0.031919 0.297418 0.281765
v -0.010384 0.313953 0.273992
v -0.030202 3.195290 0.118743
v -0.010881 3.190134 0.109365
v -0.028282 3.226625 0.109337
v -8.130113 1.001957 0.117390
v -8.109137 1.013383 0.125762
v -8.108990 1.057632 0.122117
v -8.130072 1.051803 0.113271
v -0.029091 1.057525 0.122135
v -0.029091 1.012983 0.125836
v -0.007896 1.001558 0.117463
v -0.007896 1.051697 0.113288
v -0.621491 3.552289 0.120202
v -0.604832 3.571741 0.110112
v -0.634678 3.578162 0.110025
v -8.109652 3.050581 0.120778
v -8.130128 3.050581 0.111415
v -8.137801 3.050581 0.098610
v -0.000126 3.050581 0.098610
v -0.007799 3.050581 0.111415
v -0.028276 3.050581 0.120778
v -0.056055 3.050581 0.124184
v -0.622995 3.050581 0.124184
v -7.475569 3.050581 0.124184
v -8.081871 3.050581 0.124184
v -2.019089 0.000772 0.286845
v -2.019089 0.260611 0.286844
v -2.019089 0.303360 0.285691
v -2.019089 0.344614 0.282269
v -2.019089 0.382928 0.276700
v -2.019089 3.050581 0.124184
v -2.019091 3.512358 0.124184
v -2.019091 3.543082 0.121717
v -2.019091 3.574827 0.111813
v -2.019091 3.597481 0.097528
v -3.385768 0.000772 0.286845
v -3.385768 0.260611 0.286844
v -3.385768 0.303360 0.285691
v -3.385768 0.344614 0.282269
v -3.385768 0.382928 0.276700
v -3.385768 3.050581 0.124184
v -3.385768 3.512358 0.124184
v -3.385768 3.543076 0.121734
v -3.385768 3.574822 0.111863
v -3.385768 3.597481 0.097616
v -4.752447 0.000772 0.286845
v -4.752447 0.260611 0.286844
v -4.752447 0.303360 0.285691
v -4.752447 0.344614 0.282269
v -4.752447 0.382928 0.276700
v -4.752447 3.050581 0.124184
v -4.752446 3.512358 0.124184
v -4.752446 3.543069 0.121752
v -4.752446 3.574817 0.111912
v -4.752446 3.597481 0.097703
v -6.119126 0.000772 0.286845
v -6.119126 0.260611 0.286844
v -6.119126 0.303360 0.285691
v -6.119126 0.344614 0.282269
v -6.119126 0.382928 0.276700
v -6.119126 3.050581 0.124184
v -6.119124 3.512358 0.124184
v -6.119124 3.543062 0.121769
v -6.119124 3.574812 0.111962
v -6.119124 3.597481 0.097791
v -6.119126 0.405169 -0.284392
v -6.119126 0.998416 -0.142742
v -7.480887 0.405169 -0.284392
v -7.480887 0.998416 -0.142742
v -6.119126 1.103149 -0.134184
v -6.119126 3.050581 -0.134184
v -7.480887 1.103149 -0.134184
v -7.475569 3.050581 -0.134184
v -6.119126 1.065278 -0.135206
v -7.480887 1.065278 -0.135206
v -7.480887 1.030306 -0.138107
v -6.119126 1.030306 -0.138107
v -0.617677 0.998416 -0.142742
v -0.617677 0.405169 -0.284392
v -2.019089 0.405169 -0.284392
v -2.019089 0.998416 -0.142742
v -2.019089 1.030306 -0.138107
v -0.617677 1.030306 -0.138107
v -2.019089 1.065278 -0.135206
v -0.617677 1.065278 -0.135206
v -2.017940 1.077063 -0.137306
v -0.617677 1.103149 -0.134184
v -0.622995 3.050581 -0.134184
v -2.017940 3.024495 -0.137306
v -3.385768 0.405169 -0.284392
v -3.385768 0.998416 -0.142742
v -3.385768 1.030306 -0.138107
v -3.385768 1.065278 -0.135206
v -3.384619 1.077063 -0.137306
v -3.384619 3.024495 -0.137306
v -4.752447 0.405169 -0.284392
v -4.752447 0.998416 -0.142742
v -4.752447 1.030306 -0.138107
v -4.752447 1.065278 -0.135206
v -4.752447 1.103149 -0.134184
v -4.752447 3.050581 -0.134184
v -7.480887 0.998416 0.142742
v -6.119126 0.998416 0.142742
v -7.480887 0.405169 0.284392
v -6.119126 0.405169 0.284392
v -6.119126 3.050581 0.134184
v -7.475569 3.050581 0.134184
v -7.480887 1.103149 0.134184
v -6.119126 1.103149 0.134184
v -6.119126 1.065278 0.135206
v -7.480887 1.065278 0.135206
v -6.119126 1.030306 0.138107
v -7.480887 1.030306 0.138107
v -2.019089 0.998416 0.142742
v -0.617677 0.998416 0.142742
v -2.019089 0.405169 0.284392
v -0.617677 0.405169 0.284392
v -0.617677 1.030306 0.138107
v -2.019089 1.030306 0.138107
v -0.617677 1.065278 0.135206
v -2.019089 1.065278 0.135206
v -0.617677 1.103149 0.134184
v -2.019089 1.103149 0.134184
v -0.622995 3.050581 0.134184
v -2.019089 3.050581 0.134184
v -3.385768 0.998416 0.142742
v -3.385768 0.405169 0.284392
v -3.385768 1.030306 0.138107
v -3.385768 1.065278 0.135206
v -3.385768 1.103149 0.134184
v -3.385768 3.050581 0.134184
v -4.752447 0.998416 0.142742
v -4.752447 0.405169 0.284392
v -4.752447 1.030306 0.138107
v -4.752447 1.065278 0.135206
v -4.752447 1.103149 0.134184
v -4.752447 3.050581 0.134184
vn -0.0049 -0.0000 -1.0000
vn -0.0053 0.0006 -1.0000
vn -0.2471 0.0006 -0.9690
vn -0.2475 -0.0000 -0.9689
vn -0.4033 0.0007 -0.9151
vn -0.4045 0.0001 -0.9145
vn -0.5035 0.8607 -0.0755
vn -0.4902 0.8684 -0.0747
vn -0.2131 0.3817 -0.8994
vn -0.2217 0.3880 -0.8946
vn -0.1509 0.2715 -0.9505
vn -0.1545 0.2692 -0.9506
vn -0.0450 0.0730 -0.9963
vn -0.0417 0.0737 -0.9964
vn -0.0007 0.0032 -1.0000
vn -0.0056 0.0066 -1.0000
vn -0.0014 0.9943 -0.1062
vn 0.0001 0.9942 -0.1074
vn -0.0000 0.4031 -0.9152
vn -0.0000 0.3901 -0.9208
vn -0.0000 0.2951 -0.9555
vn 0.0004 0.2954 -0.9554
vn -0.0002 0.0783 -0.9969
vn -0.0000 0.0784 -0.9969
vn -0.0000 0.0049 -1.0000
vn -0.9999 -0.0010 -0.0120
vn -0.9999 0.0024 -0.0150
vn -0.8557 0.0019 -0.5174
vn -0.8605 -0.0018 -0.5095
vn -0.4061 0.0038 -0.9138
vn -0.3974 0.0063 -0.9176
vn -0.2750 0.0054 -0.9614
vn -0.2642 0.0036 -0.9645
vn -0.0068 0.0039 -1.0000
vn -0.0069 0.0002 -1.0000
vn -0.4768 0.1967 -0.8567
vn -0.4794 0.1960 -0.8554
vn -0.3211 0.2127 -0.9228
vn -0.3248 0.2142 -0.9212
vn -0.0083 0.2270 -0.9739
vn -0.0079 0.2270 -0.9739
vn 0.0074 0.0002 -1.0000
vn 0.0072 0.0039 -1.0000
vn 0.2730 0.0057 -0.9620
vn 0.2626 0.0040 -0.9649
vn 0.3943 0.0066 -0.9190
vn 0.4033 0.0043 -0.9151
vn 0.8577 -0.0016 -0.5141
vn 0.8528 0.0021 -0.5222
vn 0.9999 0.0024 -0.0152
vn 0.9999 -0.0000 -0.0122
vn -0.0000 0.0038 -1.0000
vn 0.0001 0.0544 -0.9985
vn 0.0076 0.0543 -0.9985
vn 0.0001 0.1123 -0.9937
vn 0.0079 0.1124 -0.9936
vn -0.0000 0.2164 -0.9763
vn 0.0085 0.2271 -0.9738
vn 0.0089 0.2270 -0.9738
vn 0.3188 0.2130 -0.9236
vn 0.3229 0.2145 -0.9218
vn 0.4766 0.1965 -0.8569
vn 0.4742 0.1970 -0.8581
vn 0.4045 0.0001 -0.9145
vn 0.4033 0.0006 -0.9151
vn 0.2471 0.0006 -0.9690
vn 0.2475 -0.0000 -0.9689
vn 0.0056 0.0006 -1.0000
vn 0.0052 -0.0000 -1.0000
vn 0.0059 0.0063 -1.0000
vn 0.0007 0.0032 -1.0000
vn 0.0436 0.0721 -0.9964
vn 0.0471 0.0714 -0.9963
vn 0.1632 0.2650 -0.9503
vn 0.1588 0.2674 -0.9504
vn 0.2259 0.3773 -0.8981
vn 0.2339 0.3815 -0.8943
vn 0.5160 0.8534 -0.0735
vn 0.5294 0.8451 -0.0745
vn -0.0001 0.2271 -0.9739
vn -0.0001 0.1123 -0.9937
vn 0.0061 0.1123 -0.9937
vn -0.0001 0.0544 -0.9985
vn 0.0058 0.0544 -0.9985
vn -0.0000 0.0006 -1.0000
vn 0.0001 0.2271 -0.9739
vn -0.0000 0.2172 -0.9761
vn -0.0000 -0.0000 -1.0000
vn -0.0000 0.2278 -0.9737
vn -0.0000 0.2322 -0.9727
vn -0.0000 0.0005 -1.0000
vn -0.8525 0.0002 -0.5227
vn -0.8519 0.0006 -0.5237
vn -0.9993 -0.0000 -0.0364
vn -0.9993 -0.0000 -0.0365
vn -0.9999 0.0028 -0.0122
vn -0.9004 0.0973 -0.4241
vn -0.8997 0.0981 -0.4253
vn 0.8983 0.0987 -0.4281
vn 0.8990 0.0980 -0.4269
vn 0.9999 0.0028 -0.0124
vn 0.9993 -0.0000 -0.0365
vn 0.9993 -0.0000 -0.0364
vn 0.8519 0.0006 -0.5237
vn 0.8525 0.0002 -0.5227
vn -0.0000 0.1123 -0.9937
vn -0.0074 0.1126 -0.9936
vn -0.0000 0.0545 -0.9985
vn -0.0071 0.0545 -0.9985
vn -0.0000 0.1438 -0.9896
vn -0.0000 0.0544 -0.9985
vn -0.0000 0.0538 -0.9986
vn -0.0000 0.1120 -0.9937
vn 0.0001 0.0541 -0.9985
vn -0.0055 0.0543 -0.9985
vn 0.0001 0.1120 -0.9937
vn -0.0058 0.1122 -0.9937
vn -0.9604 0.2770 -0.0297
vn -0.6809 0.1735 -0.7115
vn -0.6242 0.0234 -0.7809
vn -0.9986 0.0412 -0.0334
vn -0.3679 0.1740 -0.9134
vn -0.2547 0.0167 -0.9669
vn -0.1362 0.0645 -0.9886
vn -0.4908 0.3961 -0.7760
vn -0.8054 0.5917 -0.0348
vn -0.0232 0.0974 -0.9950
vn -0.0745 0.3256 -0.9426
vn -0.0388 0.4549 -0.8897
vn -0.1434 0.9857 -0.0890
vn -0.1641 0.4423 -0.8817
vn -0.2820 0.9554 -0.0876
vn -0.7819 0.0535 -0.6211
vn -0.3614 0.0777 -0.9292
vn -0.2301 0.0432 -0.9722
vn -0.2446 0.1229 -0.9618
vn 0.2427 0.1211 -0.9625
vn 0.2276 0.0420 -0.9728
vn 0.3582 0.0761 -0.9306
vn 0.7767 0.0520 -0.6278
vn 0.1363 0.0653 -0.9885
vn 0.2548 0.0170 -0.9668
vn 0.3681 0.1757 -0.9130
vn 0.6813 0.1753 -0.7107
vn 0.6242 0.0237 -0.7809
vn 0.9601 0.2781 -0.0297
vn 0.9986 0.0414 -0.0335
vn 0.4912 0.3987 -0.7744
vn 0.8044 0.5931 -0.0348
vn -0.9996 0.0032 -0.0285
vn -0.8632 0.0568 -0.5016
vn -0.4164 0.1023 -0.9034
vn -0.2658 0.1082 -0.9579
vn -0.2527 0.0528 -0.9661
vn -0.3983 0.0504 -0.9159
vn -0.8509 0.0288 -0.5246
vn -0.9996 0.0016 -0.0299
vn 0.2515 0.0528 -0.9664
vn 0.2630 0.1083 -0.9587
vn 0.4127 0.1022 -0.9051
vn 0.8609 0.0572 -0.5056
vn 0.9996 0.0033 -0.0289
vn 0.8497 0.0288 -0.5265
vn 0.9995 0.0017 -0.0301
vn 0.3964 0.0501 -0.9167
vn 0.0002 0.0805 -0.9968
vn 0.0194 0.0977 -0.9950
vn 0.0688 0.3269 -0.9425
vn 0.1560 0.4418 -0.8834
vn 0.2792 0.9562 -0.0878
vn 0.0317 0.4570 -0.8889
vn 0.1404 0.9861 -0.0890
vn -0.0001 0.3939 -0.9191
vn 0.0014 0.9943 -0.1064
vn -0.0005 0.2989 -0.9543
vn 0.0003 -0.0071 -1.0000
vn 0.0007 0.0290 -0.9996
vn 0.0012 -0.0567 -0.9984
vn 0.0018 -0.0238 -0.9997
vn 0.0022 -0.0000 -1.0000
vn 0.0011 -0.0000 -1.0000
vn -0.0000 0.0050 -1.0000
vn -0.0000 0.0800 -0.9968
vn -0.0000 0.4062 -0.9138
vn -0.0000 0.2978 -0.9546
vn -0.0000 0.9942 -0.1075
vn -0.0004 -0.0012 -1.0000
vn -0.0009 -0.0628 -0.9980
vn -0.0011 -0.0000 -1.0000
vn -0.0000 0.0795 -0.9968
vn -0.0000 0.4052 -0.9142
vn -0.0000 0.2969 -0.9549
vn -0.0003 0.0414 -0.9991
vn -0.0012 -0.0116 -0.9999
vn -0.0000 0.0789 -0.9969
vn -0.0000 0.4042 -0.9147
vn -0.0000 0.2960 -0.9552
vn -0.0049 -0.0000 1.0000
vn -0.2475 -0.0000 0.9689
vn -0.2471 0.0006 0.9690
vn -0.0053 0.0006 1.0000
vn -0.4045 0.0001 0.9145
vn -0.4033 0.0007 0.9151
vn -0.5035 0.8607 0.0755
vn -0.2217 0.3880 0.8946
vn -0.2131 0.3817 0.8994
vn -0.4902 0.8684 0.0747
vn -0.1545 0.2692 0.9506
vn -0.1509 0.2715 0.9505
vn -0.0450 0.0730 0.9963
vn -0.0056 0.0066 1.0000
vn -0.0007 0.0032 1.0000
vn -0.0417 0.0737 0.9964
vn -0.9986 0.0412 0.0334
vn -0.9604 0.2770 0.0297
vn -0.8054 0.5917 0.0348
vn -0.0014 0.9943 0.1062
vn -0.0000 0.3901 0.9208
vn -0.0000 0.4031 0.9152
vn -0.0000 0.9942 0.1074
vn 0.0004 0.2954 0.9554
vn -0.0000 0.2951 0.9555
vn -0.0002 0.0783 0.9969
vn -0.0000 0.0049 1.0000
vn -0.0000 0.0784 0.9969
vn -0.2820 0.9554 0.0876
vn -0.1434 0.9857 0.0890
vn -0.9999 -0.0000 0.0120
vn -0.8605 -0.0018 0.5095
vn -0.8557 0.0019 0.5174
vn -0.9999 0.0024 0.0150
vn -0.4061 0.0038 0.9138
vn -0.2642 0.0036 0.9645
vn -0.2750 0.0054 0.9614
vn -0.3974 0.0063 0.9176
vn -0.0069 0.0002 1.0000
vn -0.0068 0.0039 1.0000
vn -0.4768 0.1967 0.8567
vn -0.3249 0.2142 0.9212
vn -0.3211 0.2127 0.9228
vn -0.4794 0.1961 0.8554
vn -0.0079 0.2270 0.9739
vn -0.0083 0.2270 0.9739
vn 0.0074 0.0002 1.0000
vn 0.2626 0.0040 0.9649
vn 0.2730 0.0057 0.9620
vn 0.0072 0.0039 1.0000
vn 0.4033 0.0043 0.9151
vn 0.3943 0.0066 0.9190
vn 0.8577 -0.0016 0.5141
vn 0.9999 -0.0009 0.0122
vn 0.9999 0.0024 0.0152
vn 0.8528 0.0021 0.5222
vn 0.0076 0.0543 0.9985
vn 0.0001 0.0544 0.9985
vn -0.0000 0.0038 1.0000
vn 0.0079 0.1124 0.9936
vn 0.0001 0.1123 0.9937
vn 0.0085 0.2271 0.9738
vn -0.0000 0.2164 0.9763
vn 0.3229 0.2145 0.9218
vn 0.3188 0.2130 0.9236
vn 0.0089 0.2270 0.9738
vn 0.4742 0.1970 0.8581
vn 0.4766 0.1965 0.8569
vn 0.4045 0.0001 0.9145
vn 0.2475 -0.0000 0.9689
vn 0.2471 0.0006 0.9690
vn 0.4033 0.0006 0.9151
vn 0.0052 -0.0000 1.0000
vn 0.0056 0.0006 1.0000
vn 0.5294 0.8451 0.0745
vn 0.8044 0.5931 0.0348
vn 0.9603 0.2773 0.0297
vn 0.9986 0.0414 0.0335
vn 0.0059 0.0063 1.0000
vn 0.0471 0.0714 0.9963
vn 0.0436 0.0721 0.9964
vn 0.0007 0.0032 1.0000
vn 0.1632 0.2650 0.9503
vn 0.2339 0.3815 0.8943
vn 0.2259 0.3773 0.8981
vn 0.1588 0.2674 0.9504
vn 0.5160 0.8534 0.0735
vn 0.0061 0.1123 0.9937
vn -0.0001 0.1123 0.9937
vn -0.0000 0.2271 0.9739
vn 0.0058 0.0544 0.9985
vn -0.0001 0.0544 0.9985
vn -0.0000 0.0006 1.0000
vn 0.0014 0.9943 0.1064
vn 0.1404 0.9861 0.0890
vn 0.2792 0.9562 0.0878
vn -0.0000 0.2172 0.9761
vn 0.0001 0.2271 0.9739
vn -0.0000 -0.0000 1.0000
vn -0.0000 0.2278 0.9737
vn -0.0000 0.2322 0.9727
vn -0.0000 0.0005 1.0000
vn 0.9993 -0.0000 0.0365
vn 0.9993 -0.0000 0.0364
vn -0.8525 0.0002 0.5227
vn -0.9993 -0.0000 0.0365
vn -0.9993 -0.0000 0.0364
vn -0.8519 0.0006 0.5237
vn -0.8997 0.0981 0.4253
vn -0.9004 0.0973 0.4241
vn -0.9999 0.0028 0.0123
vn 0.8983 0.0987 0.4281
vn 0.9999 0.0028 0.0124
vn 0.8990 0.0980 0.4269
vn 0.8525 0.0002 0.5227
vn 0.8519 0.0006 0.5237
vn -0.0074 0.1126 0.9936
vn -0.0001 0.1124 0.9937
vn -0.0071 0.0542 0.9985
vn -0.0000 0.0545 0.9985
vn -0.0000 0.1123 0.9937
vn -0.0000 0.1438 0.9896
vn -0.0000 0.0544 0.9985
vn -0.0000 0.0538 0.9986
vn -0.0000 0.1120 0.9937
vn -0.0055 0.0543 0.9985
vn 0.0001 0.0541 0.9985
vn -0.0058 0.1122 0.9937
vn 0.0001 0.1120 0.9937
vn -0.6242 0.0234 0.7809
vn -0.6809 0.1735 0.7115
vn -0.2547 0.0167 0.9669
vn -0.3679 0.1740 0.9134
vn -0.1362 0.0645 0.9886
vn -0.4908 0.3960 0.7760
vn -0.0232 0.0974 0.9950
vn -0.0745 0.3256 0.9426
vn -0.0388 0.4549 0.8897
vn -0.1641 0.4423 0.8817
vn -0.7819 0.0535 0.6211
vn -0.3614 0.0777 0.9292
vn -0.2301 0.0432 0.9722
vn -0.2446 0.1229 0.9618
vn 0.2427 0.1211 0.9625
vn 0.2276 0.0420 0.9728
vn 0.3582 0.0761 0.9306
vn 0.7767 0.0520 0.6278
vn 0.2548 0.0170 0.9668
vn 0.1363 0.0653 0.9885
vn 0.3681 0.1757 0.9130
vn 0.6242 0.0237 0.7809
vn 0.6813 0.1753 0.7107
vn 0.4912 0.3987 0.7744
vn -0.9996 0.0032 0.0285
vn -0.8632 0.0568 0.5016
vn -0.4164 0.1023 0.9034
vn -0.2658 0.1082 0.9579
vn -0.2527 0.0528 0.9661
vn -0.3983 0.0504 0.9159
vn -0.9996 0.0016 0.0299
vn -0.8509 0.0288 0.5246
vn 0.2515 0.0528 0.9664
vn 0.2630 0.1083 0.9587
vn 0.4127 0.1022 0.9051
vn 0.9996 0.0033 0.0289
vn 0.8609 0.0572 0.5056
vn 0.9995 0.0017 0.0301
vn 0.8497 0.0288 0.5265
vn 0.3964 0.0501 0.9167
vn 0.0002 0.0805 0.9968
vn 0.0194 0.0977 0.9950
vn 0.0688 0.3269 0.9425
vn 0.1560 0.4418 0.8834
vn 0.0317 0.4570 0.8889
vn -0.0001 0.3939 0.9191
vn -0.0005 0.2989 0.9543
vn -0.0000 0.0050 1.0000
vn -0.0000 0.0800 0.9968
vn -0.0000 0.4062 0.9138
vn -0.0000 0.2978 0.9546
vn -0.0001 0.9942 0.1075
vn -0.0000 0.0795 0.9968
vn -0.0000 0.4052 0.9142
vn -0.0000 0.2969 0.9549
vn -0.0000 0.9942 0.1075
vn -0.0000 0.0789 0.9969
vn -0.0000 0.4042 0.9147
vn -0.0000 0.2960 0.9552
vn -0.0000 -0.3268 -0.9451
vn -1.0000 -0.0000 -0.0000
vn -1.0000 0.0026 0.0002
vn -1.0000 0.0027 0.0002
vn -0.0000 1.0000 -0.0000
vn 1.0000 -0.0000 -0.0000
vn 1.0000 0.0027 0.0002
vn -0.0022 0.5426 -0.8400
vn -0.0054 0.6632 -0.7485
vn -0.0024 0.5470 -0.8371
vn 0.0024 0.5474 -0.8368
vn 0.0023 0.5423 -0.8402
vn 0.0035 0.8763 -0.4818
vn 0.0035 0.8760 -0.4824
vn -0.0000 -0.3268 0.9451
vn -1.0000 0.0027 -0.0002
vn 1.0000 0.0027 -0.0002
vn -0.0000 -1.0000 -0.0000
vt 0.012533 0.041714
vt 0.012771 0.188501
vt 0.009271 0.188506
vt 0.009175 0.041714
vt 0.644973 0.923416
vt 0.455010 0.923453
vt 0.455004 0.920392
vt 0.644973 0.920237
vt 0.005773 0.611228
vt 0.075364 0.611042
vt 0.075771 0.614848
vt 0.006025 0.614694
vt 0.077930 0.617488
vt 0.006320 0.617227
vt 0.012161 0.029758
vt 0.082880 0.005377
vt 0.086044 0.006900
vt 0.012414 0.033101
vt 0.085237 0.611158
vt 0.246994 0.611135
vt 0.246994 0.614900
vt 0.085306 0.614913
vt 0.246994 0.617505
vt 0.083769 0.617510
vt 0.088646 0.004586
vt 0.249840 0.004585
vt 0.249840 0.006900
vt 0.347420 0.971017
vt 0.376828 0.971458
vt 0.374070 0.974948
vt 0.347420 0.975409
vt 0.372531 0.978032
vt 0.347420 0.978623
vt 0.009165 0.271645
vt 0.009076 0.252241
vt 0.012665 0.252134
vt 0.012558 0.271645
vt 0.381060 0.972953
vt 0.440571 0.924542
vt 0.442198 0.927125
vt 0.384035 0.974722
vt 0.009142 0.243352
vt 0.009218 0.198406
vt 0.012664 0.197946
vt 0.012771 0.242701
vt 0.982873 0.271645
vt 0.982660 0.252212
vt 0.986296 0.252302
vt 0.986266 0.271645
vt 0.018691 0.785835
vt 0.043723 0.786424
vt 0.045298 0.789507
vt 0.018691 0.789050
vt 0.048098 0.793001
vt 0.018691 0.793442
vt 0.914994 0.252056
vt 0.914994 0.248833
vt 0.982648 0.248889
vt 0.914994 0.245723
vt 0.982648 0.245681
vt 0.914994 0.242834
vt 0.982660 0.242701
vt 0.982660 0.198012
vt 0.986160 0.198473
vt 0.986289 0.243352
vt 0.055306 0.789738
vt 0.113384 0.837280
vt 0.111757 0.839864
vt 0.052331 0.791506
vt 0.316244 0.844221
vt 0.126274 0.844067
vt 0.126281 0.841007
vt 0.316244 0.841042
vt 0.986256 0.041714
vt 0.986160 0.188506
vt 0.982660 0.188501
vt 0.982898 0.041714
vt 0.983016 0.033101
vt 0.914146 0.006900
vt 0.917271 0.005369
vt 0.983255 0.029752
vt 0.989653 0.617220
vt 0.922837 0.617511
vt 0.924966 0.614914
vt 0.989932 0.614669
vt 0.925362 0.611158
vt 0.990174 0.611180
vt 0.914994 0.197880
vt 0.914994 0.194991
vt 0.982657 0.195033
vt 0.914994 0.191881
vt 0.982657 0.191825
vt 0.914994 0.188658
vt 0.085195 0.197880
vt 0.085196 0.242834
vt 0.085196 0.252056
vt 0.085196 0.271645
vt 0.914994 0.271645
vt 0.249840 0.252056
vt 0.249840 0.271645
vt 0.249840 0.196431
vt 0.249840 0.241157
vt 0.085196 0.241157
vt 0.085196 0.196431
vt 0.914351 0.041714
vt 0.249840 0.041714
vt 0.249840 0.188535
vt 0.085196 0.188535
vt 0.085838 0.041714
vt 0.085196 0.188658
vt 0.454997 0.916211
vt 0.644973 0.915890
vt 0.438349 0.921012
vt 0.109534 0.843393
vt 0.316244 0.848569
vt 0.126268 0.848248
vt 0.085196 0.245723
vt 0.012743 0.245670
vt 0.085196 0.248833
vt 0.012707 0.248852
vt 0.249840 0.242834
vt 0.249840 0.245723
vt 0.249840 0.248833
vt 0.249840 0.191390
vt 0.085196 0.191390
vt 0.085196 0.194027
vt 0.249840 0.194027
vt 0.085196 0.191881
vt 0.012736 0.191817
vt 0.085195 0.194991
vt 0.012700 0.195003
vt 0.659139 0.915729
vt 0.658585 0.919554
vt 0.654788 0.920160
vt 0.654801 0.915730
vt 0.659087 0.922733
vt 0.655270 0.923398
vt 0.009126 0.033757
vt 0.009399 0.030808
vt 0.003524 0.616707
vt 0.003280 0.614222
vt 0.002701 0.611227
vt 0.662141 0.919557
vt 0.662675 0.915729
vt 0.085613 0.003895
vt 0.080697 0.617088
vt 0.082298 0.614420
vt 0.081926 0.611118
vt 0.078648 0.614390
vt 0.078626 0.611079
vt 0.377999 0.975434
vt 0.376405 0.978074
vt 0.009569 0.249247
vt 0.009585 0.245813
vt 0.380849 0.976779
vt 0.985821 0.245823
vt 0.985816 0.249281
vt 0.047633 0.786383
vt 0.049246 0.789022
vt 0.052108 0.787678
vt 0.986023 0.030804
vt 0.986305 0.033756
vt 0.330362 0.841733
vt 0.329859 0.844918
vt 0.326060 0.844299
vt 0.326542 0.841061
vt 0.330412 0.848752
vt 0.326071 0.848729
vt 0.333419 0.844927
vt 0.333953 0.848773
vt 0.993266 0.611193
vt 0.992691 0.614203
vt 0.992456 0.616701
vt 0.443548 0.918384
vt 0.445100 0.922266
vt 0.446215 0.925109
vt 0.009237 0.195303
vt 0.009255 0.191967
vt 0.450532 0.923871
vt 0.449963 0.920868
vt 0.449163 0.916766
vt 0.986158 0.191975
vt 0.986158 0.195333
vt 0.117446 0.839325
vt 0.116332 0.842168
vt 0.114780 0.846050
vt 0.121224 0.843585
vt 0.120423 0.847687
vt 0.121792 0.840582
vt 0.911504 0.004583
vt 0.914533 0.003889
vt 0.920064 0.617089
vt 0.922104 0.614409
vt 0.922132 0.611120
vt 0.918450 0.614385
vt 0.918831 0.611080
vt 0.915430 0.614847
vt 0.915486 0.611042
vt 0.916997 0.617487
vt 0.745556 0.252056
vt 0.745556 0.271645
vt 0.745556 0.248833
vt 0.745556 0.245723
vt 0.745556 0.242834
vt 0.914994 0.196431
vt 0.914994 0.241157
vt 0.745556 0.241157
vt 0.745556 0.196431
vt 0.745556 0.194027
vt 0.914994 0.194027
vt 0.745556 0.191390
vt 0.914994 0.191390
vt 0.745556 0.188535
vt 0.914994 0.188535
vt 0.745556 0.041714
vt 0.745556 0.006900
vt 0.745556 0.004583
vt 0.748958 0.614860
vt 0.748958 0.617491
vt 0.748958 0.611065
vt 0.580317 0.252056
vt 0.580317 0.271645
vt 0.580317 0.248833
vt 0.580317 0.245723
vt 0.580317 0.242834
vt 0.580317 0.241157
vt 0.580317 0.196431
vt 0.580317 0.194027
vt 0.580317 0.191390
vt 0.580317 0.188535
vt 0.580317 0.041714
vt 0.580317 0.006900
vt 0.580317 0.004584
vt 0.581636 0.614873
vt 0.581636 0.617496
vt 0.581636 0.611089
vt 0.415079 0.252056
vt 0.415079 0.271645
vt 0.415079 0.248833
vt 0.415079 0.245723
vt 0.415079 0.242834
vt 0.415079 0.241157
vt 0.415079 0.196431
vt 0.415079 0.194027
vt 0.415079 0.191390
vt 0.415079 0.188535
vt 0.415079 0.041714
vt 0.415079 0.006900
vt 0.415079 0.004585
vt 0.414315 0.614886
vt 0.414315 0.617501
vt 0.414316 0.611112
vt 0.012533 0.509796
vt 0.009175 0.509796
vt 0.009271 0.363004
vt 0.012771 0.363009
vt 0.644973 0.841402
vt 0.644973 0.844581
vt 0.455004 0.844427
vt 0.455010 0.841366
vt 0.005772 0.559082
vt 0.006025 0.555616
vt 0.075772 0.555462
vt 0.075364 0.559268
vt 0.006320 0.553083
vt 0.077930 0.552821
vt 0.012161 0.521752
vt 0.012415 0.518409
vt 0.086044 0.544610
vt 0.082880 0.546133
vt 0.654801 0.849089
vt 0.659139 0.849089
vt 0.662676 0.849089
vt 0.002701 0.559082
vt 0.085237 0.559152
vt 0.085306 0.555396
vt 0.246994 0.555410
vt 0.246994 0.559175
vt 0.083769 0.552800
vt 0.246994 0.552804
vt 0.088646 0.546924
vt 0.249840 0.544610
vt 0.249840 0.546925
vt 0.078626 0.559231
vt 0.081926 0.559192
vt 0.347420 0.793802
vt 0.347420 0.789410
vt 0.374070 0.789871
vt 0.376828 0.793361
vt 0.347420 0.786196
vt 0.372531 0.786786
vt 0.009165 0.279865
vt 0.012558 0.279865
vt 0.012665 0.299376
vt 0.009076 0.299269
vt 0.381060 0.791866
vt 0.384035 0.790097
vt 0.442198 0.837694
vt 0.440571 0.840277
vt 0.009142 0.308158
vt 0.012771 0.308809
vt 0.012665 0.353564
vt 0.009218 0.353104
vt 0.982873 0.279865
vt 0.986266 0.279865
vt 0.986296 0.299208
vt 0.982660 0.299298
vt 0.018691 0.978264
vt 0.018691 0.975049
vt 0.045298 0.974592
vt 0.043723 0.977676
vt 0.018691 0.970657
vt 0.048098 0.971098
vt 0.982648 0.302621
vt 0.914994 0.302677
vt 0.914994 0.299454
vt 0.982648 0.305829
vt 0.914994 0.305788
vt 0.982660 0.308809
vt 0.914994 0.308676
vt 0.986289 0.308159
vt 0.986160 0.353038
vt 0.982660 0.353498
vt 0.055305 0.974362
vt 0.052331 0.972593
vt 0.111756 0.924236
vt 0.113383 0.926820
vt 0.316244 0.919877
vt 0.316244 0.923056
vt 0.126281 0.923092
vt 0.126274 0.920032
vt 0.986256 0.509796
vt 0.982898 0.509796
vt 0.982660 0.363009
vt 0.986160 0.363004
vt 0.990174 0.559130
vt 0.993266 0.559117
vt 0.333953 0.915326
vt 0.330412 0.915347
vt 0.326071 0.915370
vt 0.983017 0.518409
vt 0.983255 0.521758
vt 0.917271 0.546141
vt 0.914146 0.544610
vt 0.989652 0.553090
vt 0.989932 0.555640
vt 0.924966 0.555395
vt 0.922837 0.552798
vt 0.925362 0.559151
vt 0.982658 0.356477
vt 0.914994 0.356519
vt 0.914994 0.353630
vt 0.982658 0.359685
vt 0.914994 0.359629
vt 0.914994 0.362852
vt 0.915486 0.559268
vt 0.918831 0.559229
vt 0.922132 0.559190
vt 0.085196 0.308676
vt 0.085196 0.353630
vt 0.085196 0.279865
vt 0.085196 0.299454
vt 0.914994 0.279865
vt 0.249840 0.279865
vt 0.249840 0.299454
vt 0.249840 0.355079
vt 0.085196 0.355079
vt 0.085196 0.310353
vt 0.249840 0.310353
vt 0.914352 0.509796
vt 0.249840 0.509796
vt 0.085838 0.509796
vt 0.085196 0.362975
vt 0.249840 0.362975
vt 0.085196 0.362852
vt 0.316244 0.915530
vt 0.126268 0.915851
vt 0.644973 0.848929
vt 0.454997 0.848609
vt 0.438349 0.843807
vt 0.109534 0.920706
vt 0.012743 0.305840
vt 0.085196 0.305788
vt 0.012707 0.302659
vt 0.085196 0.302677
vt 0.249840 0.305788
vt 0.249840 0.308676
vt 0.249840 0.302677
vt 0.249840 0.360120
vt 0.085196 0.360120
vt 0.249840 0.357483
vt 0.085196 0.357483
vt 0.012736 0.359693
vt 0.085196 0.359629
vt 0.012700 0.356507
vt 0.085196 0.356519
vt 0.654788 0.844659
vt 0.658585 0.845265
vt 0.655270 0.841420
vt 0.659086 0.842086
vt 0.009126 0.517753
vt 0.009399 0.520702
vt 0.003524 0.553602
vt 0.003280 0.556087
vt 0.662141 0.845261
vt 0.085613 0.547615
vt 0.080697 0.553221
vt 0.082298 0.555890
vt 0.078648 0.555920
vt 0.377999 0.789385
vt 0.376405 0.786745
vt 0.009569 0.302262
vt 0.009585 0.305697
vt 0.380849 0.788040
vt 0.985821 0.305687
vt 0.985816 0.302229
vt 0.047633 0.977716
vt 0.049246 0.975076
vt 0.052108 0.976421
vt 0.986305 0.517754
vt 0.986023 0.520706
vt 0.330362 0.922366
vt 0.326542 0.923039
vt 0.326060 0.919800
vt 0.329859 0.919182
vt 0.333419 0.919172
vt 0.992691 0.556107
vt 0.992455 0.553608
vt 0.443548 0.846435
vt 0.445100 0.842553
vt 0.446215 0.839710
vt 0.009237 0.356207
vt 0.009255 0.359544
vt 0.450532 0.840948
vt 0.449963 0.843951
vt 0.449163 0.848053
vt 0.986158 0.359535
vt 0.986158 0.356177
vt 0.117446 0.924774
vt 0.116332 0.921931
vt 0.114780 0.918049
vt 0.120423 0.916412
vt 0.121224 0.920514
vt 0.121792 0.923518
vt 0.911504 0.546927
vt 0.914533 0.547621
vt 0.920064 0.553221
vt 0.922104 0.555901
vt 0.918450 0.555924
vt 0.915430 0.555462
vt 0.916997 0.552823
vt 0.745556 0.299454
vt 0.745556 0.279865
vt 0.745556 0.302677
vt 0.745556 0.305788
vt 0.745556 0.308676
vt 0.914994 0.355079
vt 0.745556 0.355079
vt 0.745556 0.310353
vt 0.914994 0.310353
vt 0.914994 0.357483
vt 0.745556 0.357483
vt 0.914994 0.360120
vt 0.745556 0.360120
vt 0.914994 0.362975
vt 0.745556 0.362975
vt 0.745556 0.509796
vt 0.745556 0.544610
vt 0.745556 0.546926
vt 0.748957 0.555449
vt 0.748958 0.552818
vt 0.748957 0.559244
vt 0.580318 0.299454
vt 0.580318 0.279865
vt 0.580318 0.302677
vt 0.580318 0.305788
vt 0.580318 0.308676
vt 0.580318 0.355079
vt 0.580318 0.310353
vt 0.580318 0.357483
vt 0.580318 0.360120
vt 0.580318 0.362975
vt 0.580318 0.509796
vt 0.580317 0.544610
vt 0.580317 0.546926
vt 0.581636 0.555436
vt 0.581636 0.552814
vt 0.581637 0.559221
vt 0.415079 0.299454
vt 0.415079 0.279865
vt 0.415079 0.302677
vt 0.415079 0.305788
vt 0.415079 0.308676
vt 0.415079 0.355079
vt 0.415079 0.310353
vt 0.415079 0.357483
vt 0.415079 0.360120
vt 0.415079 0.362975
vt 0.415079 0.509796
vt 0.415079 0.544610
vt 0.415079 0.546926
vt 0.414315 0.555423
vt 0.414315 0.552809
vt 0.414315 0.559198
vt 0.720055 0.707978
vt 0.757917 0.676518
vt 0.759137 0.678377
vt 0.721468 0.709678
vt 0.765684 0.674277
vt 0.889444 0.674277
vt 0.889444 0.676486
vt 0.765787 0.676486
vt 0.985344 0.650317
vt 0.793946 0.650317
vt 0.793946 0.647255
vt 0.985344 0.647255
vt 0.762969 0.674532
vt 0.763383 0.676712
vt 0.760350 0.675288
vt 0.761162 0.677353
vt 0.757917 0.748339
vt 0.720055 0.716879
vt 0.721468 0.715179
vt 0.759137 0.746480
vt 0.760350 0.749569
vt 0.761162 0.747504
vt 0.762969 0.750325
vt 0.763383 0.748145
vt 0.765684 0.750580
vt 0.765787 0.748371
vt 0.889444 0.750580
vt 0.889444 0.748371
vt 0.215419 0.650317
vt 0.018426 0.650317
vt 0.018426 0.647255
vt 0.215419 0.647255
vt 0.408261 0.650317
vt 0.408261 0.647255
vt 0.601104 0.650317
vt 0.601104 0.647255
vt 0.916380 0.718007
vt 0.954242 0.749467
vt 0.952829 0.751167
vt 0.915160 0.719866
vt 0.793946 0.635147
vt 0.985344 0.635147
vt 0.985344 0.638209
vt 0.793946 0.638209
vt 0.784853 0.715765
vt 0.908613 0.715765
vt 0.908509 0.717975
vt 0.784853 0.717975
vt 0.911327 0.716020
vt 0.910914 0.718201
vt 0.913947 0.716776
vt 0.913135 0.718842
vt 0.954242 0.676562
vt 0.916380 0.708022
vt 0.915160 0.706163
vt 0.952829 0.674863
vt 0.913947 0.709253
vt 0.913135 0.707187
vt 0.911327 0.710009
vt 0.910914 0.707828
vt 0.908613 0.710264
vt 0.908509 0.708054
vt 0.018426 0.635147
vt 0.215419 0.635147
vt 0.215419 0.638209
vt 0.018426 0.638209
vt 0.784853 0.710264
vt 0.784853 0.708054
vt 0.408261 0.635147
vt 0.408261 0.638209
vt 0.601104 0.635147
vt 0.601104 0.638209
vt 0.018924 0.664353
vt 0.067983 0.664353
vt 0.067983 0.766010
vt 0.018923 0.766010
vt 0.179183 0.664353
vt 0.179183 0.766011
vt 0.290784 0.664353
vt 0.290784 0.766011
vt 0.402387 0.664353
vt 0.402387 0.766011
vt 0.513988 0.664353
vt 0.513988 0.766010
vt 0.628426 0.664353
vt 0.628427 0.766011
vt 0.674271 0.664353
vt 0.674271 0.766010
vt 0.014339 0.668937
vt 0.014953 0.666645
vt 0.014953 0.763719
vt 0.014339 0.761427
vt 0.016632 0.664967
vt 0.016632 0.765396
vt 0.676563 0.664967
vt 0.676563 0.765396
vt 0.678241 0.666645
vt 0.678241 0.763718
vt 0.678855 0.668936
vt 0.678855 0.761427
s 1
usemtl lambert3
f 140/1/1 61/2/2 62/3/3 131/4/4
f 131/5/4 62/6/3 63/7/5 132/8/6
f 8/9/7 17/10/8 18/11/9 7/12/10
f 7/12/10 18/11/9 19/13/11 6/14/12
f 6/15/13 19/16/14 20/17/15 5/18/16
f 14/19/17 180/20/18 179/21/19 13/22/20
f 13/22/20 179/21/19 178/23/21 12/24/22
f 12/25/23 178/26/24 177/27/25 20/17/15
f 21/28/26 33/29/27 25/30/28 24/31/29
f 24/31/30 25/30/31 26/32/32 23/33/33
f 23/34/33 26/35/32 27/36/34 22/37/35
f 32/38/36 56/39/37 57/40/38 31/41/39
f 31/42/39 57/43/38 58/44/40 30/45/41
f 34/46/42 40/47/43 41/48/44 37/49/45
f 37/50/45 41/51/44 42/52/46 36/53/47
f 36/53/48 42/52/49 43/54/50 35/55/51
f 40/47/43 85/56/52 86/57/53 39/58/54
f 39/58/54 86/57/53 87/59/55 38/60/56
f 38/60/56 87/59/55 88/61/57 46/62/58
f 46/62/58 66/63/59 67/64/60 45/65/61
f 45/66/61 67/67/60 68/68/62 44/69/63
f 135/70/64 69/71/65 70/72/66 136/73/67
f 136/74/67 70/75/66 71/76/68 137/77/69
f 55/78/70 84/79/71 76/80/72 54/81/73
f 54/82/74 76/83/75 77/84/76 53/85/77
f 53/85/77 77/84/76 78/86/78 52/87/79
f 66/63/59 89/88/80 90/89/81 65/90/82
f 65/90/82 90/89/81 91/91/83 64/92/84
f 64/92/84 91/91/83 92/93/85 71/76/68
f 30/45/41 58/44/40 93/94/86 75/95/87
f 27/36/34 72/96/52 2/97/88 22/37/35
f 85/56/52 40/47/43 34/46/42 1/98/88
f 66/63/59 46/62/58 88/61/57 89/88/80
f 137/77/69 71/76/68 92/93/85 138/105/88
f 61/2/2 140/1/1 139/109/88 96/110/85
f 132/8/92 63/7/93 97/111/94 133/112/95
f 33/29/27 100/113/96 56/39/97 32/38/98
f 44/69/99 68/68/100 101/114/101 43/54/50
f 134/115/102 104/116/103 69/71/104 135/70/105
f 30/45/41 75/95/87 74/117/106 29/118/107
f 29/118/107 74/117/106 73/119/108 28/120/109
f 28/120/109 73/119/108 72/96/52 27/36/34
f 61/2/2 96/110/85 95/128/114 60/129/115
f 60/129/115 95/128/114 94/130/116 59/131/117
f 59/131/117 94/130/116 93/94/86 58/44/40
f 10/132/118 105/133/119 3/134/120 11/135/121
f 105/133/119 106/136/122 4/137/123 3/134/120
f 4/138/123 106/139/124 6/15/13 5/18/16
f 106/140/122 107/141/125 7/12/10 6/14/12
f 7/12/10 107/141/125 9/142/126 8/9/7
f 107/143/125 105/133/119 10/132/118 9/144/126
f 105/133/119 107/143/125 106/136/122
f 19/16/14 108/145/127 12/25/23 20/17/15
f 108/146/128 109/147/129 13/22/20 12/24/22
f 13/22/20 109/147/129 15/148/130 14/19/17
f 109/147/129 110/149/131 16/150/132 15/148/130
f 16/150/132 110/149/131 18/11/9 17/10/8
f 110/149/131 108/146/128 19/13/11 18/11/9
f 108/146/128 110/149/131 109/147/129
f 32/38/98 111/151/133 25/30/28 33/29/27
f 111/151/134 112/152/135 26/32/32 25/30/31
f 26/35/32 112/153/135 28/120/109 27/36/34
f 112/153/135 113/154/136 29/118/107 28/120/109
f 29/118/107 113/154/136 31/42/39 30/45/41
f 113/155/136 111/151/134 32/38/36 31/41/39
f 111/151/134 113/155/136 112/152/135
f 45/65/61 114/156/137 38/60/56 46/62/58
f 114/156/137 115/157/138 39/58/54 38/60/56
f 39/58/54 115/157/138 41/48/44 40/47/43
f 115/158/138 116/159/139 42/52/46 41/51/44
f 42/52/49 116/159/140 44/69/99 43/54/50
f 116/159/139 114/160/137 45/66/61 44/69/63
f 114/160/137 116/159/139 115/158/138
f 54/81/73 117/161/141 47/162/142 55/78/70
f 117/163/143 118/164/144 48/165/145 47/166/142
f 48/165/145 118/164/144 50/167/146 49/168/147
f 118/164/144 119/169/148 51/170/149 50/167/146
f 51/171/149 119/172/148 53/85/77 52/87/79
f 119/172/148 117/173/143 54/82/74 53/85/77
f 117/163/143 119/169/148 118/164/144
f 99/174/150 120/175/151 56/39/97 100/113/96
f 120/175/152 121/176/153 57/40/38 56/39/37
f 57/43/38 121/177/153 59/131/117 58/44/40
f 121/177/153 122/178/154 60/129/115 59/131/117
f 60/129/115 122/178/154 62/3/3 61/2/2
f 122/179/154 123/180/155 63/7/5 62/6/3
f 63/7/93 123/180/156 98/181/157 97/111/94
f 123/180/156 120/175/151 99/174/150 98/181/157
f 120/175/152 123/180/155 122/179/154 121/176/153
f 70/75/66 124/182/158 64/92/84 71/76/68
f 124/182/158 125/183/159 65/90/82 64/92/84
f 65/90/82 125/183/159 67/64/60 66/63/59
f 125/184/159 126/185/160 68/68/62 67/67/60
f 68/68/100 126/185/161 102/186/162 101/114/101
f 126/185/161 127/187/163 103/188/164 102/186/162
f 103/188/164 127/187/163 69/71/104 104/116/103
f 127/187/165 124/189/158 70/72/66 69/71/65
f 124/189/158 127/187/165 126/185/160 125/184/159
f 83/190/166 128/191/167 76/80/72 84/79/71
f 128/192/168 129/193/169 77/84/76 76/83/75
f 77/84/76 129/193/169 79/194/170 78/86/78
f 129/193/169 130/195/171 80/196/172 79/194/170
f 80/196/172 130/195/171 82/197/173 81/198/174
f 130/195/171 128/192/168 83/199/175 82/197/173
f 128/192/168 130/195/171 129/193/169
f 4/137/123 131/5/4 132/8/6 3/134/120
f 3/134/120 132/8/92 133/112/95 11/135/121
f 49/168/147 134/115/102 135/70/105 48/165/145
f 48/165/145 135/70/64 136/73/67 47/166/142
f 47/162/142 136/74/67 137/77/69 55/78/70
f 84/79/71 55/78/70 137/77/69 138/105/88
f 20/17/15 177/27/25 176/106/88 139/109/88
f 140/1/1 5/18/16 20/17/15 139/109/88
f 5/18/16 140/1/1 131/4/4 4/138/123
f 147/216/182 84/79/71 138/105/88 146/215/88
f 148/217/183 83/190/166 84/79/71 147/216/182
f 149/218/184 82/197/173 83/199/175 148/219/185
f 150/220/186 81/198/174 82/197/173 149/218/184
f 157/232/182 147/216/182 146/215/88 156/231/88
f 158/233/190 148/217/183 147/216/182 157/232/182
f 159/234/191 149/218/184 148/219/185 158/235/192
f 160/236/186 150/220/186 149/218/184 159/234/191
f 167/248/25 157/232/182 156/231/88 166/247/88
f 168/249/195 158/233/190 157/232/182 167/248/25
f 169/250/196 159/234/191 158/235/192 168/251/197
f 170/252/186 160/236/186 159/234/191 169/250/196
f 177/27/25 167/248/25 166/247/88 176/106/88
f 178/26/24 168/249/195 167/248/25 177/27/25
f 179/21/19 169/250/196 168/251/197 178/23/21
f 180/20/18 170/252/186 169/250/196 179/21/19
f 320/253/198 311/254/199 242/255/200 241/256/201
f 311/257/199 312/258/202 243/259/203 242/260/200
f 188/261/204 187/262/205 198/263/206 197/264/207
f 187/262/205 186/265/208 199/266/209 198/263/206
f 186/267/210 185/268/211 200/269/212 199/270/213
f 11/135/121 191/271/214 190/272/215 10/132/118
f 10/132/118 190/272/215 189/273/216 9/144/126
f 9/142/126 189/274/216 188/261/204 8/9/7
f 194/275/217 193/276/218 359/277/219 360/278/220
f 193/276/218 192/279/221 358/280/222 359/277/219
f 192/281/223 200/269/212 357/282/224 358/283/225
f 17/10/8 197/264/207 196/284/226 16/150/132
f 16/150/132 196/284/226 195/285/227 15/148/130
f 15/148/130 195/285/227 194/275/217 14/19/17
f 201/286/228 204/287/229 205/288/230 213/289/231
f 204/287/232 203/290/233 206/291/234 205/288/235
f 203/292/233 202/293/236 207/294/237 206/295/234
f 212/296/238 211/297/239 237/298/240 236/299/241
f 211/300/239 210/301/242 238/302/243 237/303/240
f 214/304/244 217/305/245 221/306/246 220/307/247
f 217/308/245 216/309/248 222/310/249 221/311/246
f 216/309/250 215/312/251 223/313/252 222/310/253
f 220/307/247 219/314/254 266/315/255 265/316/256
f 219/314/254 218/317/257 267/318/258 266/315/255
f 218/317/257 226/319/259 268/320/260 267/318/258
f 226/319/259 225/321/261 247/322/262 246/323/263
f 225/324/261 224/325/264 248/326/265 247/327/262
f 315/328/266 316/329/267 250/330/268 249/331/269
f 316/332/267 317/333/270 251/334/271 250/335/268
f 52/87/79 232/336/272 231/337/273 51/171/149
f 51/170/149 231/338/273 230/339/274 50/167/146
f 50/167/146 230/339/274 229/340/275 49/168/147
f 235/341/276 234/342/277 256/343/278 264/344/279
f 234/345/280 233/346/281 257/347/282 256/348/283
f 233/346/281 232/336/272 258/349/284 257/347/282
f 246/323/263 245/350/285 270/351/286 269/352/287
f 245/350/285 244/353/288 271/354/289 270/351/286
f 244/353/288 251/334/271 272/355/290 271/354/289
f 81/198/174 261/356/291 260/357/292 80/196/172
f 80/196/172 260/357/292 259/358/293 79/194/170
f 79/194/170 259/358/293 258/349/284 78/86/78
f 210/301/242 255/359/294 273/360/295 238/302/243
f 8/9/7 188/261/204 197/264/207 17/10/8
f 207/294/237 202/293/236 182/361/296 252/362/256
f 43/54/50 223/313/252 215/312/251 35/55/51
f 21/28/26 201/286/228 213/289/231 33/29/27
f 78/86/78 258/349/284 232/336/272 52/87/79
f 265/316/256 181/363/296 214/304/244 220/307/247
f 246/323/263 269/352/287 268/320/260 226/319/259
f 14/19/17 194/275/217 360/278/220 180/20/18
f 317/333/270 318/370/296 272/355/290 251/334/271
f 241/256/201 276/375/290 319/372/296 320/253/198
f 134/115/102 314/376/300 284/377/301 104/116/103
f 312/258/302 313/378/303 277/379/304 243/259/305
f 213/289/231 212/296/306 236/299/307 280/380/308
f 97/111/94 277/379/304 313/378/303 133/112/95
f 224/325/309 223/313/252 281/381/310 248/326/311
f 314/376/300 315/328/312 249/331/313 284/377/301
f 210/301/242 209/382/314 254/383/315 255/359/294
f 209/382/314 208/384/316 253/385/317 254/383/315
f 208/384/316 207/294/237 252/362/256 253/385/317
f 241/256/201 240/393/323 275/394/324 276/375/290
f 240/393/323 239/395/325 274/396/326 275/394/324
f 239/395/325 238/302/243 273/360/295 274/396/326
f 190/272/215 191/271/214 183/397/327 285/398/328
f 285/398/328 183/397/327 184/399/329 286/400/330
f 184/401/329 185/268/211 186/267/210 286/402/331
f 286/403/330 186/265/208 187/262/205 287/404/332
f 187/262/205 188/261/204 189/274/216 287/404/332
f 287/405/332 189/273/216 190/272/215 285/398/328
f 285/398/328 286/400/330 287/405/332
f 199/270/213 200/269/212 192/281/223 288/406/333
f 288/407/334 192/279/221 193/276/218 289/408/335
f 193/276/218 194/275/217 195/285/227 289/408/335
f 289/408/335 195/285/227 196/284/226 290/409/336
f 196/284/226 197/264/207 198/263/206 290/409/336
f 290/409/336 198/263/206 199/266/209 288/407/334
f 288/407/334 289/408/335 290/409/336
f 212/296/306 213/289/231 205/288/230 291/410/337
f 291/410/338 205/288/235 206/291/234 292/411/339
f 206/295/234 207/294/237 208/384/316 292/412/339
f 292/412/339 208/384/316 209/382/314 293/413/340
f 209/382/314 210/301/242 211/300/239 293/413/340
f 293/414/340 211/297/239 212/296/238 291/410/338
f 291/410/338 292/411/339 293/414/340
f 225/321/261 226/319/259 218/317/257 294/415/341
f 294/415/341 218/317/257 219/314/254 295/416/342
f 219/314/254 220/307/247 221/306/246 295/416/342
f 295/417/342 221/311/246 222/310/249 296/418/343
f 222/310/253 223/313/252 224/325/309 296/418/344
f 296/418/343 224/325/264 225/324/261 294/419/341
f 294/419/341 295/417/342 296/418/343
f 234/342/277 235/341/276 227/420/345 297/421/346
f 297/422/347 227/423/345 228/424/348 298/425/349
f 228/424/348 229/340/275 230/339/274 298/425/349
f 298/425/349 230/339/274 231/338/273 299/426/350
f 231/337/273 232/336/272 233/346/281 299/427/350
f 299/427/350 233/346/281 234/345/280 297/428/347
f 297/422/347 298/425/349 299/426/350
f 279/429/351 280/380/308 236/299/307 300/430/352
f 300/430/353 236/299/241 237/298/240 301/431/354
f 237/303/240 238/302/243 239/395/325 301/432/354
f 301/432/354 239/395/325 240/393/323 302/433/355
f 240/393/323 241/256/201 242/255/200 302/433/355
f 302/434/355 242/260/200 243/259/203 303/435/356
f 243/259/305 277/379/304 278/436/357 303/435/358
f 303/435/358 278/436/357 279/429/351 300/430/352
f 300/430/353 301/431/354 302/434/355 303/435/356
f 250/335/268 251/334/271 244/353/288 304/437/359
f 304/437/359 244/353/288 245/350/285 305/438/360
f 245/350/285 246/323/263 247/322/262 305/438/360
f 305/439/360 247/327/262 248/326/265 306/440/361
f 248/326/311 281/381/310 282/441/362 306/440/363
f 306/440/363 282/441/362 283/442/364 307/443/365
f 283/442/364 284/377/301 249/331/313 307/443/365
f 307/443/366 249/331/269 250/330/268 304/444/359
f 304/444/359 305/439/360 306/440/361 307/443/366
f 263/445/367 264/344/279 256/343/278 308/446/368
f 308/447/369 256/348/283 257/347/282 309/448/370
f 257/347/282 258/349/284 259/358/293 309/448/370
f 309/448/370 259/358/293 260/357/292 310/449/371
f 260/357/292 261/356/291 262/450/372 310/449/371
f 310/449/371 262/450/372 263/451/373 308/447/369
f 308/447/369 309/448/370 310/449/371
f 104/116/103 284/377/301 283/442/364 103/188/164
f 102/186/162 282/441/362 281/381/310 101/114/101
f 103/188/164 283/442/364 282/441/362 102/186/162
f 101/114/101 281/381/310 223/313/252 43/54/50
f 99/174/150 279/429/351 278/436/357 98/181/157
f 98/181/157 278/436/357 277/379/304 97/111/94
f 33/29/27 213/289/231 280/380/308 100/113/96
f 100/113/96 280/380/308 279/429/351 99/174/150
f 184/399/329 183/397/327 312/258/202 311/257/199
f 183/397/327 191/271/214 313/378/303 312/258/302
f 133/112/95 313/378/303 191/271/214 11/135/121
f 49/168/147 229/340/275 314/376/300 134/115/102
f 229/340/275 228/424/348 315/328/312 314/376/300
f 228/424/348 227/423/345 316/329/267 315/328/266
f 227/420/345 235/341/276 317/333/270 316/332/267
f 264/344/279 318/370/296 317/333/270 235/341/276
f 200/269/212 319/372/296 356/371/296 357/282/224
f 320/253/198 319/372/296 200/269/212 185/268/211
f 185/268/211 184/401/329 311/254/199 320/253/198
f 327/468/374 326/467/296 318/370/296 264/344/279
f 328/469/375 327/468/374 264/344/279 263/445/367
f 329/470/376 328/471/377 263/451/373 262/450/372
f 330/472/378 329/470/376 262/450/372 261/356/291
f 150/220/186 330/472/378 261/356/291 81/198/174
f 337/484/374 336/483/296 326/467/296 327/468/374
f 338/485/379 337/484/374 327/468/374 328/469/375
f 339/486/380 338/487/381 328/471/377 329/470/376
f 340/488/382 339/486/380 329/470/376 330/472/378
f 160/236/186 340/488/382 330/472/378 150/220/186
f 347/500/224 346/499/296 336/483/296 337/484/374
f 348/501/383 347/500/224 337/484/374 338/485/379
f 349/502/384 348/503/385 338/487/381 339/486/380
f 350/504/382 349/502/384 339/486/380 340/488/382
f 170/252/186 350/504/382 340/488/382 160/236/186
f 357/282/224 356/371/296 346/499/296 347/500/224
f 358/283/225 357/282/224 347/500/224 348/501/383
f 359/277/219 358/280/222 348/503/385 349/502/384
f 360/278/220 359/277/219 349/502/384 350/504/382
f 180/20/18 360/278/220 350/504/382 170/252/186
f 22/577/403 2/578/403 182/579/403 202/580/403
f 2/578/403 171/581/403 351/582/403 182/579/403
f 171/581/403 161/583/403 341/584/403 351/582/403
f 161/583/403 151/585/403 331/586/403 341/584/403
f 151/585/403 141/587/403 321/588/403 331/586/403
f 141/587/403 1/589/403 181/590/403 321/588/403
f 1/589/403 34/591/403 214/592/403 181/590/403
f 21/593/403 24/594/403 204/595/403 201/596/403
f 24/594/403 23/597/403 203/598/403 204/595/403
f 23/597/403 22/577/403 202/580/403 203/598/403
f 34/591/403 37/599/403 217/600/403 214/592/403
f 37/599/403 36/601/403 216/602/403 217/600/403
f 36/601/403 35/603/403 215/604/403 216/602/403
usemtl lambert1.080
f 72/96/52 172/99/52 171/100/88 2/97/88
f 362/101/89 361/102/90 363/103/90 364/104/89
f 366/106/88 365/107/91 367/108/91 368/109/88
f 75/95/87 175/121/110 174/122/106 74/117/106
f 74/117/106 174/122/106 173/123/111 73/119/108
f 73/119/108 173/123/111 172/99/52 72/96/52
f 369/124/112 370/125/112 367/108/91 365/107/91
f 362/101/89 364/104/89 371/126/113 372/127/113
f 372/127/113 371/126/113 370/125/112 369/124/112
f 142/200/52 85/56/52 1/98/88 141/201/88
f 143/202/111 86/57/53 85/56/52 142/200/52
f 144/203/106 87/59/55 86/57/53 143/202/111
f 145/204/110 88/61/57 87/59/55 144/203/106
f 373/205/89 374/206/90 375/207/90 376/208/89
f 373/205/89 376/208/89 377/209/113 378/210/113
f 378/210/113 377/209/113 379/211/176 380/212/177
f 380/212/177 379/211/176 381/213/178 382/214/179
f 383/105/180 382/214/179 381/213/178 384/215/181
f 152/221/52 142/200/52 141/201/88 151/222/88
f 153/223/111 143/202/111 142/200/52 152/221/52
f 154/224/106 144/203/106 143/202/111 153/223/111
f 155/225/110 145/204/110 144/203/106 154/224/106
f 376/208/89 375/207/90 385/226/90 386/227/89
f 376/208/89 386/227/89 387/228/113 377/209/113
f 377/209/113 387/228/113 388/229/187 379/211/176
f 379/211/176 388/229/187 389/230/188 381/213/178
f 384/215/181 381/213/178 389/230/188 390/231/189
f 162/237/52 152/221/52 151/222/88 161/238/88
f 163/239/111 153/223/111 152/221/52 162/237/52
f 164/240/106 154/224/106 153/223/111 163/239/111
f 165/241/110 155/225/110 154/224/106 164/240/106
f 386/227/89 385/226/90 391/242/90 392/243/89
f 386/227/89 392/243/89 393/244/113 387/228/113
f 387/228/113 393/244/113 394/245/193 388/229/187
f 388/229/187 394/245/193 395/246/194 389/230/188
f 390/231/189 389/230/188 395/246/194 396/247/189
f 172/99/52 162/237/52 161/238/88 171/100/88
f 173/123/111 163/239/111 162/237/52 172/99/52
f 174/122/106 164/240/106 163/239/111 173/123/111
f 175/121/110 165/241/110 164/240/106 174/122/106
f 392/243/89 391/242/90 361/102/90 362/101/89
f 392/243/89 362/101/89 372/127/113 393/244/113
f 393/244/113 372/127/113 369/124/112 394/245/193
f 394/245/193 369/124/112 365/107/91 395/246/194
f 396/247/189 395/246/194 365/107/91 366/106/88
f 252/362/256 182/361/296 351/364/296 352/365/256
f 398/366/297 397/367/297 399/368/298 400/369/298
f 401/371/296 402/372/296 403/373/299 404/374/299
f 255/359/294 254/383/315 354/386/318 355/387/319
f 254/383/315 253/385/317 353/388/320 354/386/318
f 253/385/317 252/362/256 352/365/256 353/388/320
f 405/389/321 404/374/299 403/373/299 406/390/321
f 398/366/297 407/391/322 408/392/322 397/367/297
f 407/391/322 405/389/321 406/390/321 408/392/322
f 322/452/256 321/453/296 181/363/296 265/316/256
f 323/454/320 322/452/256 265/316/256 266/315/255
f 324/455/318 323/454/320 266/315/255 267/318/258
f 325/456/319 324/455/318 267/318/258 268/320/260
f 410/457/297 409/458/297 411/459/298 412/460/298
f 410/457/297 413/461/322 414/462/322 409/458/297
f 413/461/322 415/463/321 416/464/321 414/462/322
f 415/463/321 417/465/299 418/466/299 416/464/321
f 419/370/296 420/467/296 418/466/299 417/465/299
f 332/473/256 331/474/296 321/453/296 322/452/256
f 333/475/320 332/473/256 322/452/256 323/454/320
f 334/476/318 333/475/320 323/454/320 324/455/318
f 335/477/319 334/476/318 324/455/318 325/456/319
f 409/458/297 421/478/297 422/479/298 411/459/298
f 409/458/297 414/462/322 423/480/322 421/478/297
f 414/462/322 416/464/321 424/481/321 423/480/322
f 416/464/321 418/466/299 425/482/299 424/481/321
f 420/467/296 426/483/296 425/482/299 418/466/299
f 342/489/256 341/490/296 331/474/296 332/473/256
f 343/491/320 342/489/256 332/473/256 333/475/320
f 344/492/318 343/491/320 333/475/320 334/476/318
f 345/493/319 344/492/318 334/476/318 335/477/319
f 421/478/297 427/494/297 428/495/298 422/479/298
f 421/478/297 423/480/322 429/496/322 427/494/297
f 423/480/322 424/481/321 430/497/321 429/496/322
f 424/481/321 425/482/299 431/498/299 430/497/321
f 426/483/296 432/499/296 431/498/299 425/482/299
f 352/365/256 351/364/296 341/490/296 342/489/256
f 353/388/320 352/365/256 342/489/256 343/491/320
f 354/386/318 353/388/320 343/491/320 344/492/318
f 355/387/319 354/386/318 344/492/318 345/493/319
f 427/494/297 398/366/297 400/369/298 428/495/298
f 427/494/297 429/496/322 407/391/322 398/366/297
f 429/496/322 430/497/321 405/389/321 407/391/322
f 430/497/321 431/498/299 404/374/299 405/389/321
f 432/499/296 401/371/296 404/374/299 431/498/299
usemtl lambert2
f 175/121/386 75/95/386 363/103/386 361/102/386
f 75/505/387 93/506/387 364/507/387 363/508/387
f 96/509/388 139/510/389 368/511/389 367/512/388
f 139/513/390 176/514/390 366/515/390 368/516/390
f 95/517/387 96/509/388 367/512/388 370/518/387
f 93/506/387 94/519/387 371/520/387 364/507/387
f 94/519/387 95/517/387 370/518/387 371/520/387
f 89/521/391 88/522/391 374/523/391 373/524/391
f 88/61/386 145/204/386 375/207/386 374/206/386
f 90/525/391 89/521/391 373/524/391 378/526/391
f 91/527/391 90/525/391 378/526/391 380/528/391
f 92/529/392 91/527/391 380/528/391 382/530/392
f 138/531/392 92/529/392 382/530/392 383/532/392
f 146/533/393 138/534/394 383/535/394 384/536/395
f 145/204/386 155/225/386 385/226/386 375/207/386
f 156/537/396 146/533/393 384/536/395 390/538/397
f 155/225/386 165/241/386 391/242/386 385/226/386
f 166/539/398 156/537/396 390/538/397 396/540/399
f 165/241/386 175/121/386 361/102/386 391/242/386
f 176/514/390 166/539/398 396/540/399 366/515/390
f 273/541/387 255/542/387 399/543/387 397/544/387
f 255/359/400 355/387/400 400/369/400 399/368/400
f 356/545/390 319/546/390 402/547/390 401/548/390
f 319/549/401 276/550/401 403/551/401 402/552/401
f 276/550/401 275/553/387 406/554/387 403/551/401
f 274/555/387 273/541/387 397/544/387 408/556/387
f 275/553/387 274/555/387 408/556/387 406/554/387
f 325/456/400 268/320/400 412/460/400 411/459/400
f 268/557/391 269/558/391 410/559/391 412/560/391
f 269/558/391 270/561/391 413/562/391 410/559/391
f 270/561/391 271/563/391 415/564/391 413/562/391
f 271/563/391 272/565/402 417/566/402 415/564/391
f 318/567/390 326/568/390 420/569/390 419/570/390
f 272/565/402 318/571/402 419/572/402 417/566/402
f 335/477/400 325/456/400 411/459/400 422/479/400
f 326/568/390 336/573/390 426/574/390 420/569/390
f 345/493/400 335/477/400 422/479/400 428/495/400
f 336/573/390 346/575/390 432/576/390 426/574/390
f 355/387/400 345/493/400 428/495/400 400/369/400
f 346/575/390 356/545/390 401/548/390 432/576/390
